HIERARCHY
ROOT Hips
{
	OFFSET 0.000000 0.000000 0.000000
	CHANNELS 6 Xposition Yposition Zposition Zrotation Yrotation Xrotation 
	JOINT LHipJoint
	{
		OFFSET 0.000000 0.000000 0.000000
		CHANNELS 3 Zrotation Yrotation Xrotation
		JOINT LeftUpLeg
		{
			OFFSET 1.363060 -1.794630 0.839290
			CHANNELS 3 Zrotation Yrotation Xrotation
			JOINT LeftLeg
			{
				OFFSET 2.448110 -6.726130 0.000000
				CHANNELS 3 Zrotation Yrotation Xrotation
				JOINT LeftFoot
				{
					OFFSET 2.562200 -7.039590 0.000000
					CHANNELS 3 Zrotation Yrotation Xrotation
					JOINT LeftToeBase
					{
						OFFSET 0.157640 -0.433110 2.322550
						CHANNELS 3 Zrotation Yrotation Xrotation
						End Site
						{
							OFFSET 0.000000 0.000000 0.000000
						}
					}
				}
			}
		}
	}
	JOINT RHipJoint
	{
		OFFSET 0.000000 0.000000 0.000000
		CHANNELS 3 Zrotation Yrotation Xrotation
		JOINT RightUpLeg
		{
			OFFSET -1.305520 -1.794630 0.839290
			CHANNELS 3 Zrotation Yrotation Xrotation
			JOINT RightLeg
			{
				OFFSET -2.542530 -6.985550 0.000000
				CHANNELS 3 Zrotation Yrotation Xrotation
				JOINT RightFoot
				{
					OFFSET -2.568260 -7.056230 0.000000
					CHANNELS 3 Zrotation Yrotation Xrotation
					JOINT RightToeBase
					{
						OFFSET -0.164730 -0.452590 2.363150
						CHANNELS 3 Zrotation Yrotation Xrotation
						End Site
						{
							OFFSET 0.000000 0.000000 0.000000
						}
					}
				}
			}
		}
	}
}
MOTION
Frames: 13
Frame Time: 0.008333
16.278327 16.786530 1.597096 88.167328 -88.528109 -41.101889 -8.439339 -0.502943 3.814803 -8.406150 -9.151173 -58.775103 -2.401220 -1.140721 18.106198 3.984973 14.608035 -13.395612 -0.399100 0.000000 -43.853500 8.330643 0.350882 4.651760 3.873960 7.301735 -59.312856 2.600904 0.324098 19.609886 -3.220430 -8.386274 -14.614260 0.103500 0.000001 -59.650200
16.258639 16.704301 1.597053 90.639709 -88.322815 -42.665949 -8.352231 -0.497658 3.934661 -8.380278 -9.809144 -60.997977 -2.385607 -0.899530 20.698902 4.181771 14.649972 -15.059352 -0.866000 -0.000000 -44.212800 8.314816 0.409743 4.753540 3.447778 7.475097 -61.810180 2.535302 -0.046944 22.576840 -3.339918 -8.248018 -16.085908 0.376300 -0.000001 -59.213400
16.238964 16.611105 1.597297 92.084774 -88.114412 -43.183764 -8.261342 -0.481708 4.071475 -8.318867 -10.516811 -63.340906 -2.355472 -0.630895 23.458380 4.380051 14.675590 -16.768550 -1.351900 -0.000000 -44.453700 8.314056 0.485991 4.859789 2.997297 7.618836 -64.404400 2.453767 -0.442426 25.694562 -3.464826 -8.135503 -17.596732 0.656000 0.000000 -58.768200
16.219071 16.506348 1.598041 92.615219 -87.902495 -42.770753 -8.170905 -0.459544 4.226485 -8.209906 -11.276291 -65.794768 -2.305751 -0.338247 26.363524 4.576379 14.690365 -18.487788 -1.844900 0.000000 -44.515300 8.326464 0.578512 4.971870 2.521840 7.731983 -67.086226 2.353644 -0.859274 28.947554 -3.595301 -8.058393 -19.131040 0.941400 0.000000 -58.282200
16.199065 16.389477 1.599451 92.360291 -87.686139 -41.558037 -8.084571 -0.435849 4.399975 -8.042644 -12.087044 -68.348710 -2.231809 -0.026223 29.392993 4.767582 14.699896 -20.186111 -2.334700 -0.000000 -44.338400 8.349862 0.686569 5.090453 2.020989 7.814109 -69.842911 2.232697 -1.293296 32.318800 -3.731461 -8.024829 -20.677573 1.232999 -0.000000 -57.707900
16.179023 16.260249 1.601633 91.445229 -87.464164 -39.677132 -8.004864 -0.415696 4.590234 -7.808581 -12.943548 -70.988683 -2.129996 0.299919 32.526572 4.950866 14.710001 -21.838094 -2.813099 0.000000 -43.875100 8.381954 0.809796 5.215024 1.496067 7.865289 -72.656291 2.089269 -1.739496 35.788681 -3.873216 -8.041450 -22.227463 1.532500 0.000001 -56.992600
16.159268 16.118780 1.604699 89.988643 -87.236575 -37.257001 -7.933407 -0.404397 4.793174 -7.503136 -13.833681 -73.695741 -1.998281 0.634850 35.746322 5.123554 14.724921 -23.425500 -3.274400 -0.000000 -43.089400 8.420191 0.947487 5.344214 0.951186 7.888082 -75.500578 1.922283 -2.191897 39.333813 -4.020809 -8.114926 -23.775124 1.842600 -0.000000 -56.080300
16.139553 15.965489 1.608637 88.115519 -87.003509 -34.434046 -7.870563 -0.406778 5.002950 -7.126724 -14.741768 -76.447498 -1.836207 0.973408 39.035846 5.283915 14.750599 -24.936095 -3.715600 -0.000000 -41.968200 8.462524 1.099122 5.475629 0.391793 7.885170 -78.346277 1.731450 -2.644520 42.930292 -4.174071 -8.249418 -25.317182 2.167100 0.000000 -54.924100
16.119850 15.801121 1.613424 85.953514 -86.766380 -31.348111 -7.815858 -0.426894 5.212212 -6.685158 -15.648474 -79.218684 -1.645117 1.311267 42.380710 5.430651 14.792106 -26.363608 -4.135800 0.000000 -40.527199 8.507178 1.264003 5.606300 -0.174956 7.861491 -81.161273 1.516972 -3.091543 46.554463 -4.332796 -8.448222 -26.851417 2.509700 -0.000000 -53.489300
16.100383 15.626777 1.618963 83.609965 -86.528356 -28.120093 -7.768092 -0.467561 5.412861 -6.188738 -16.532947 -81.982721 -1.427593 1.645203 45.766831 5.563108 14.855299 -27.704040 -4.535500 -0.000000 -38.830800 8.552707 1.441601 5.732889 -0.740885 7.823519 -83.914028 1.279622 -3.527688 50.182545 -4.496522 -8.713451 -28.374427 2.874300 -0.000000 -51.764000
16.080777 15.443947 1.625071 81.207977 -86.292765 -24.885565 -7.726393 -0.530022 5.597121 -5.654486 -17.374558 -84.706867 -1.187706 1.972718 49.176474 5.681118 14.945478 -28.956255 -4.916700 -0.000000 -36.950200 8.597975 1.630684 5.852505 -1.298845 7.778453 -86.571182 1.020386 -3.947823 53.789809 -4.664187 -9.045479 -29.879635 3.263500 0.000000 -49.766400
16.060933 15.254328 1.631567 78.829100 -86.064335 -21.737496 -7.689755 -0.614008 5.758533 -5.099996 -18.155638 -87.364772 -0.929620 2.292830 52.592469 5.784853 15.067342 -30.117477 -5.280800 -0.000001 -35.016200 8.641906 1.830233 5.962734 -1.842122 7.734904 -89.107608 0.740504 -4.348031 57.354564 -4.834599 -9.444134 -31.357590 3.679000 0.000000 -47.542500
16.040459 15.059808 1.638185 76.547024 -85.847334 -18.756162 -7.657931 -0.717714 5.892613 -4.545155 -18.863148 -89.928744 -0.657711 2.604925 55.993834 5.874741 15.223806 -31.185501 -5.629200 0.000000 -33.161300 8.683727 2.038502 6.062293 -2.366375 7.700415 -91.501538 0.441499 -4.724838 60.854422 -5.006003 -9.907582 -32.794276 4.120700 -0.000000 -45.171800
